<svg width="35" height="35" viewBox="0 0 35 35" fill="none" xmlns="http://www.w3.org/2000/svg">
<path fill-rule="evenodd" clip-rule="evenodd" d="M12.874 2.86255C12.874 1.9996 12.1745 1.30005 11.3115 1.30005C10.4486 1.30005 9.749 1.9996 9.749 2.86255V6.7688C9.749 7.63175 10.4486 8.3313 11.3115 8.3313C12.1745 8.3313 12.874 7.63175 12.874 6.7688V2.86255ZM5.60838 4.20777C6.47133 4.20777 7.17088 4.90732 7.17088 5.77027V9.67652C7.17088 10.5394 6.47133 11.239 5.60838 11.239C4.74543 11.239 4.04588 10.5394 4.04588 9.67652V5.77027C4.04588 4.90732 4.74543 4.20777 5.60838 4.20777ZM17.0146 4.20777C17.8776 4.20777 18.5771 4.90732 18.5771 5.77027V9.67652C18.5771 10.5394 17.8776 11.239 17.0146 11.239C16.1517 11.239 15.4521 10.5394 15.4521 9.67652V5.77027C15.4521 4.90732 16.1517 4.20777 17.0146 4.20777ZM31.1595 8.02367C29.15 8.02367 27.521 9.65277 27.521 11.6623C27.521 12.1144 27.6033 12.5471 27.754 12.9464L25.0638 15.4336C23.5397 14.7634 21.6936 14.8704 20.033 15.6901C19.4445 16.0333 18.8798 16.4846 18.3664 17.0485C16.2538 19.3688 16.1138 22.4229 17.4961 24.2123C17.638 24.3959 17.7969 24.569 17.9735 24.7297C18.484 25.1945 18.521 25.985 18.0562 26.4955C17.5914 27.006 16.8009 27.043 16.2904 26.5783C16.0055 26.3188 15.7478 26.0385 15.5177 25.7407C13.2371 22.7885 13.7738 18.3792 16.5179 15.3654L16.5863 15.291C11.4054 13.7537 4.65548 15.5745 1.67812 21.5209C-0.617535 26.106 0.252255 29.8583 1.04628 31.7733C1.59708 33.1017 2.90498 33.7 4.09963 33.7H29.8548C31.9258 33.7 33.6048 32.021 33.6048 29.95V29.208C33.6048 27.5183 33.3273 25.9207 32.447 24.4818C31.7763 23.3857 30.8045 22.461 29.4993 21.6648C29.1098 22.9718 28.411 24.2297 27.433 25.3038C26.9683 25.8143 26.1775 25.8513 25.6673 25.3865C25.1568 24.9216 25.1198 24.1311 25.5845 23.6206C27.2488 21.7926 27.6855 19.5379 27.1305 17.7785L29.921 15.1988C29.9505 15.1715 29.9788 15.1433 30.0058 15.1143C30.3683 15.2354 30.7563 15.301 31.1595 15.301C33.1693 15.301 34.7983 13.672 34.7983 11.6623C34.7983 9.65277 33.1693 8.02367 31.1595 8.02367Z" fill="#D32B28"/>
</svg>
