<svg width="35" height="35" viewBox="0 0 35 35" fill="none" xmlns="http://www.w3.org/2000/svg">
<path fill-rule="evenodd" clip-rule="evenodd" d="M5.4371 30.8907C10.9903 35.5564 20.5574 34.0667 27.312 27.3119C33.4242 21.1997 35.2255 12.7844 32.0555 7.12442C31.9337 7.55769 31.7928 8.02207 31.631 8.50757C30.8092 10.973 29.3958 14.1382 27.0373 16.4967C25.6873 17.8467 24.0366 18.4745 22.391 18.7737C20.8022 19.0626 19.1025 19.0625 17.5712 19.0624H17.5C15.8875 19.0624 14.4532 19.0671 13.168 19.3007C11.9149 19.5286 10.9305 19.9548 10.1724 20.7129C8.31465 22.5707 7.09295 25.2027 6.33368 27.4804C5.95975 28.6022 5.7102 29.6007 5.55473 30.3157C5.50668 30.5367 5.46778 30.7299 5.4371 30.8907ZM2.94448 27.8754C-0.225134 22.2153 1.57601 13.8003 7.68818 7.68812C14.4428 0.933541 24.0097 -0.556184 29.563 4.10932C29.5323 4.26994 29.4933 4.46312 29.4452 4.68407C29.2898 5.39929 29.0403 6.39759 28.6663 7.51934C27.907 9.79717 26.6852 12.4292 24.8276 14.287C24.0695 15.0451 23.0851 15.4713 21.832 15.6991C20.5467 15.9328 19.1125 15.9374 17.5 15.9374H17.4288C15.8976 15.9374 14.1978 15.9373 12.609 16.2262C10.9635 16.5253 9.31275 17.1532 7.96273 18.5032C5.60428 20.8616 4.19085 24.0269 3.36905 26.4924C3.20723 26.9777 3.0664 27.4422 2.94448 27.8754Z" fill="#D32B28"/>
</svg>
