<svg width="48" height="48" viewBox="0 0 48 48" fill="none" xmlns="http://www.w3.org/2000/svg">
<g filter="url(#filter0_d_184_241)">
<circle cx="24" cy="20" r="20" fill="#D32B28"/>
</g>
<path d="M14 29.2502C13.5858 29.2502 13.25 29.586 13.25 30.0002C13.25 30.4145 13.5858 30.7502 14 30.7502V29.2502ZM34 30.7502C34.4142 30.7502 34.75 30.4145 34.75 30.0002C34.75 29.586 34.4142 29.2502 34 29.2502V30.7502ZM15 17.9702L15.75 17.9733V17.9702H15ZM15.77 16.4003L15.3092 15.8085L15.3045 15.8123L15.77 16.4003ZM22.77 10.9503L22.3095 10.3583L22.3093 10.3585L22.77 10.9503ZM25.23 10.9503L25.6902 10.3581L25.6865 10.3552L25.23 10.9503ZM32.23 16.3903L31.7698 16.9825L31.7704 16.9829L32.23 16.3903ZM21.5 30.0002H20.75C20.75 30.4145 21.0858 30.7502 21.5 30.7502V30.0002ZM26.5 30.0002V30.7502C26.9142 30.7502 27.25 30.4145 27.25 30.0002H26.5ZM30.25 15.0077C30.2542 15.4219 30.5933 15.7543 31.0075 15.7502C31.4217 15.7461 31.7541 15.4069 31.75 14.9927L30.25 15.0077ZM30.97 12.0002L31.72 11.9927C31.7159 11.5815 31.3813 11.2502 30.97 11.2502V12.0002ZM26.57 11.2502C26.1558 11.2502 25.82 11.586 25.82 12.0002C25.82 12.4145 26.1558 12.7502 26.57 12.7502V11.2502ZM14 30.7502H34V29.2502H14V30.7502ZM15.7 30.0034L15.75 17.9733L14.25 17.9671L14.2 29.9971L15.7 30.0034ZM15.75 17.9702C15.75 17.5977 15.9286 17.2313 16.2355 16.9883L15.3045 15.8123C14.6514 16.3293 14.25 17.1228 14.25 17.9702H15.75ZM16.2307 16.9921L23.2307 11.5421L22.3093 10.3585L15.3093 15.8085L16.2307 16.9921ZM23.2305 11.5423C23.6778 11.1944 24.3109 11.1905 24.7735 11.5453L25.6865 10.3552C24.6891 9.59007 23.3022 9.58617 22.3095 10.3583L23.2305 11.5423ZM24.7698 11.5425L31.7698 16.9825L32.6902 15.7981L25.6902 10.3581L24.7698 11.5425ZM31.7704 16.9829C32.0745 17.2188 32.25 17.5786 32.25 17.9702H33.75C33.75 17.1219 33.3655 16.3218 32.6896 15.7976L31.7704 16.9829ZM32.25 17.9702V30.0003H33.75V17.9702H32.25ZM25 24.2502H23V25.7502H25V24.2502ZM23 24.2502C21.7558 24.2502 20.75 25.256 20.75 26.5002H22.25C22.25 26.0845 22.5842 25.7502 23 25.7502V24.2502ZM20.75 26.5002V30.0002H22.25V26.5002H20.75ZM21.5 30.7502H26.5V29.2502H21.5V30.7502ZM27.25 30.0002V26.5002H25.75V30.0002H27.25ZM27.25 26.5002C27.25 25.256 26.2442 24.2502 25 24.2502V25.7502C25.4158 25.7502 25.75 26.0845 25.75 26.5002H27.25ZM21.5 21.0002H19.5V22.5002H21.5V21.0002ZM19.5 21.0002C19.3642 21.0002 19.25 20.886 19.25 20.7502H17.75C17.75 21.7145 18.5358 22.5002 19.5 22.5002V21.0002ZM19.25 20.7502V19.2502H17.75V20.7502H19.25ZM19.25 19.2502C19.25 19.1145 19.3642 19.0002 19.5 19.0002V17.5002C18.5358 17.5002 17.75 18.286 17.75 19.2502H19.25ZM19.5 19.0002H21.5V17.5002H19.5V19.0002ZM21.5 19.0002C21.6358 19.0002 21.75 19.1145 21.75 19.2502H23.25C23.25 18.286 22.4642 17.5002 21.5 17.5002V19.0002ZM21.75 19.2502V20.7502H23.25V19.2502H21.75ZM21.75 20.7502C21.75 20.886 21.6358 21.0002 21.5 21.0002V22.5002C22.4642 22.5002 23.25 21.7145 23.25 20.7502H21.75ZM28.5 21.0002H26.5V22.5002H28.5V21.0002ZM26.5 21.0002C26.3642 21.0002 26.25 20.886 26.25 20.7502H24.75C24.75 21.7145 25.5358 22.5002 26.5 22.5002V21.0002ZM26.25 20.7502V19.2502H24.75V20.7502H26.25ZM26.25 19.2502C26.25 19.1145 26.3642 19.0002 26.5 19.0002V17.5002C25.5358 17.5002 24.75 18.286 24.75 19.2502H26.25ZM26.5 19.0002H28.5V17.5002H26.5V19.0002ZM28.5 19.0002C28.6358 19.0002 28.75 19.1145 28.75 19.2502H30.25C30.25 18.286 29.4642 17.5002 28.5 17.5002V19.0002ZM28.75 19.2502V20.7502H30.25V19.2502H28.75ZM28.75 20.7502C28.75 20.886 28.6358 21.0002 28.5 21.0002V22.5002C29.4642 22.5002 30.25 21.7145 30.25 20.7502H28.75ZM31.75 14.9927L31.72 11.9927L30.22 12.0077L30.25 15.0077L31.75 14.9927ZM30.97 11.2502H26.57V12.7502H30.97V11.2502Z" fill="white"/>
<defs>
<filter id="filter0_d_184_241" x="0" y="0" width="48" height="48" filterUnits="userSpaceOnUse" color-interpolation-filters="sRGB">
<feFlood flood-opacity="0" result="BackgroundImageFix"/>
<feColorMatrix in="SourceAlpha" type="matrix" values="0 0 0 0 0 0 0 0 0 0 0 0 0 0 0 0 0 0 127 0" result="hardAlpha"/>
<feOffset dy="4"/>
<feGaussianBlur stdDeviation="2"/>
<feComposite in2="hardAlpha" operator="out"/>
<feColorMatrix type="matrix" values="0 0 0 0 0 0 0 0 0 0 0 0 0 0 0 0 0 0 0.25 0"/>
<feBlend mode="normal" in2="BackgroundImageFix" result="effect1_dropShadow_184_241"/>
<feBlend mode="normal" in="SourceGraphic" in2="effect1_dropShadow_184_241" result="shape"/>
</filter>
</defs>
</svg>
