<svg width="35" height="35" viewBox="0 0 35 35" fill="none" xmlns="http://www.w3.org/2000/svg">
<path fill-rule="evenodd" clip-rule="evenodd" d="M24.304 0.166405C25.2908 0.480382 25.8363 1.53486 25.5223 2.52164L24.2472 6.52887C26.5005 8.31324 27.9998 11.0087 28.188 14.0588H30.0003C31.0358 14.0588 31.8753 14.8983 31.8753 15.9338C31.8753 16.9694 31.0358 17.8088 30.0003 17.8088H28.0788L27.1468 30.8585C26.9833 33.148 25.0783 34.9218 22.7828 34.9218H12.7701C10.4748 34.9218 8.56978 33.148 8.40625 30.8585L7.47413 17.8088H5.55298C4.51745 17.8088 3.67798 16.9694 3.67798 15.9338C3.67798 14.8983 4.51745 14.0588 5.55298 14.0588H7.36505C7.70193 8.60169 12.2345 4.27994 17.7765 4.27994C18.8566 4.27994 19.8985 4.44412 20.8783 4.74887L21.9488 1.38463C22.2627 0.397847 23.3172 -0.147573 24.304 0.166405ZM11.1264 14.0588C11.4545 10.675 14.3066 8.02994 17.7765 8.02994C21.2464 8.02994 24.0985 10.675 24.4265 14.0588H11.1264ZM24.0167 22.0456L24.3193 17.8088H11.2337L11.5363 22.0456H24.0167Z" fill="#D32B28"/>
</svg>
