<svg width="130" height="130" viewBox="0 0 130 130" fill="none" xmlns="http://www.w3.org/2000/svg">
<g opacity="0.5">
<path d="M65 121.875C33.6375 121.875 8.125 96.3625 8.125 65C8.125 33.6375 33.6375 8.125 65 8.125C96.3625 8.125 121.875 33.6375 121.875 65C121.875 96.3625 96.3625 121.875 65 121.875ZM65 12.1875C35.88 12.1875 12.1875 35.88 12.1875 65C12.1875 94.12 35.88 117.812 65 117.812C94.12 117.812 117.812 94.12 117.812 65C117.812 35.88 94.12 12.1875 65 12.1875Z" fill="#263238"/>
<path d="M79.2188 97.4998C78.52 97.4998 77.8416 97.1383 77.4597 96.4923C77.2972 96.2161 73.0316 89.3748 60.9375 89.3748C48.8434 89.3748 44.5778 96.2161 44.4031 96.5045C43.8222 97.4592 42.5791 97.7761 41.6244 97.2114C40.6656 96.6386 40.3406 95.4117 40.9012 94.4448C41.1206 94.0711 46.3938 85.3123 60.9375 85.3123C75.4813 85.3123 80.7544 94.0711 80.9737 94.4448C81.5384 95.4117 81.2094 96.6589 80.2425 97.2236C79.9216 97.4145 79.5681 97.4998 79.2188 97.4998ZM87.3438 64.9998C71.3091 64.9998 65.5566 56.3061 65.3209 55.9404C64.7156 54.9979 64.9878 53.7386 65.9344 53.1373C66.8769 52.5279 68.1322 52.8042 68.7375 53.7508C68.9284 54.0311 73.6694 60.9373 87.3438 60.9373C88.465 60.9373 89.375 61.8473 89.375 62.9686C89.375 64.0898 88.465 64.9998 87.3438 64.9998ZM26.4062 64.9998C25.285 64.9998 24.375 64.0898 24.375 62.9686C24.375 61.8473 25.285 60.9373 26.4062 60.9373C40.0806 60.9373 44.8216 54.0311 45.0166 53.7345C45.6341 52.8083 46.8853 52.5442 47.8238 53.1495C48.7581 53.7548 49.0303 54.9979 48.4291 55.9404C48.1934 56.3061 42.4409 64.9998 26.4062 64.9998ZM93.4375 89.3748C88.9566 89.3748 85.3125 85.7308 85.3125 81.2498C85.3125 75.8914 91.0813 66.9254 91.7394 65.922C92.1091 65.3533 92.7387 65.0079 93.4131 64.9998C94.0916 64.9145 94.7253 65.3167 95.1072 65.8773C95.7694 66.8279 101.562 75.3714 101.562 81.2498C101.562 85.7308 97.9184 89.3748 93.4375 89.3748ZM93.4741 70.8823C91.6419 74.0795 89.375 78.6498 89.375 81.2498C89.375 83.4923 91.1991 85.3123 93.4375 85.3123C95.6759 85.3123 97.5 83.4923 97.5 81.2498C97.5 78.3898 95.2859 73.9576 93.4741 70.8823Z" fill="#263238"/>
</g>
</svg>
